<svg xmlns="http://www.w3.org/2000/svg" viewBox="0 0 760 430" width="760" height="430" role="img" aria-label="Tunable correspondence eta curves">
<style>
  :root { --fg:#1a1a1a; --mut:#6b7280; --grid:#e5e7eb; --bg:#ffffff; --accent:#111827; }
  @media (prefers-color-scheme: dark) {
    :root { --fg:#e8e8ea; --mut:#9ca3af; --grid:#2f3542; --bg:#0f1115; --accent:#f3f4f6; }
  }
  :root[data-theme="dark"] { --fg:#e8e8ea; --mut:#9ca3af; --grid:#2f3542; --bg:#0f1115; --accent:#f3f4f6; }
  :root[data-theme="light"] { --fg:#1a1a1a; --mut:#6b7280; --grid:#e5e7eb; --bg:#ffffff; --accent:#111827; }
  .bg { fill: var(--bg); }
  .ax { stroke: var(--grid); stroke-width: 1; }
  .tick { fill: var(--mut); font: 11px ui-sans-serif, system-ui, sans-serif; }
  .lbl { fill: var(--fg); font: 12px ui-sans-serif, system-ui, sans-serif; }
  .ttl { fill: var(--fg); font: 600 14px ui-sans-serif, system-ui, sans-serif; }
  .sub { fill: var(--mut); font: 11px ui-sans-serif, system-ui, sans-serif; }
  .node { fill: var(--bg); stroke: var(--fg); stroke-width: 1.5; }
  .ntxt { fill: var(--fg); font: 10px ui-sans-serif, system-ui, sans-serif; text-anchor: middle; }
</style>
<rect class="bg" width="760" height="430"/><text class="ttl" x="24" y="26">F-06 tunable correspondence: the penalty sets the ranking</text><text class="sub" x="24" y="43">K(A, ·) as the mapping-complexity penalty η varies. Crossings are rank reversals — not magnitude changes.</text><line class="ax" x1="62" y1="378.0" x2="510" y2="378.0"/><text class="tick" x="53" y="382.0" text-anchor="end">0.0</text><line class="ax" x1="62" y1="313.2" x2="510" y2="313.2"/><text class="tick" x="53" y="317.2" text-anchor="end">0.2</text><line class="ax" x1="62" y1="248.4" x2="510" y2="248.4"/><text class="tick" x="53" y="252.4" text-anchor="end">0.4</text><line class="ax" x1="62" y1="183.6" x2="510" y2="183.6"/><text class="tick" x="53" y="187.6" text-anchor="end">0.6</text><line class="ax" x1="62" y1="118.8" x2="510" y2="118.8"/><text class="tick" x="53" y="122.8" text-anchor="end">0.8</text><line class="ax" x1="62" y1="54.0" x2="510" y2="54.0"/><text class="tick" x="53" y="58.0" text-anchor="end">1.0</text><line class="ax" x1="62.0" y1="54" x2="62.0" y2="378"/><text class="tick" x="62.0" y="396" text-anchor="middle">0.00</text><line class="ax" x1="136.7" y1="54" x2="136.7" y2="378"/><text class="tick" x="136.7" y="396" text-anchor="middle">0.25</text><line class="ax" x1="211.3" y1="54" x2="211.3" y2="378"/><text class="tick" x="211.3" y="396" text-anchor="middle">0.50</text><line class="ax" x1="286.0" y1="54" x2="286.0" y2="378"/><text class="tick" x="286.0" y="396" text-anchor="middle">0.75</text><line class="ax" x1="360.7" y1="54" x2="360.7" y2="378"/><text class="tick" x="360.7" y="396" text-anchor="middle">1.00</text><line class="ax" x1="435.3" y1="54" x2="435.3" y2="378"/><text class="tick" x="435.3" y="396" text-anchor="middle">1.25</text><line class="ax" x1="510.0" y1="54" x2="510.0" y2="378"/><text class="tick" x="510.0" y="396" text-anchor="middle">1.50</text><text class="lbl" x="286" y="416" text-anchor="middle">mapping-complexity penalty η</text><text class="lbl" transform="translate(18,216) rotate(-90)" text-anchor="middle">correspondence K</text><line x1="289.0" y1="54" x2="289.0" y2="378" stroke="#dc2626" stroke-width="1.2" stroke-dasharray="3 3" opacity="0.75"/><text class="tick" x="294.0" y="67" fill="#dc2626">η=0.76</text><line x1="127.7" y1="54" x2="127.7" y2="378" stroke="#dc2626" stroke-width="1.2" stroke-dasharray="3 3" opacity="0.75"/><text class="tick" x="132.7" y="67" fill="#dc2626">η=0.22</text><polyline points="62.0,54.0 68.0,61.4 73.9,68.4 79.9,75.2 85.9,81.7 91.9,87.9 97.8,93.8 103.8,99.5 109.8,105.0 115.8,110.2 121.7,115.3 127.7,120.2 133.7,124.9 139.7,129.4 145.6,133.8 151.6,138.0 157.6,142.1 163.5,146.0 169.5,149.8 175.5,153.5 181.5,157.1 187.4,160.6 193.4,163.9 199.4,167.2 205.4,170.3 211.3,173.4 217.3,176.3 223.3,179.2 229.3,182.0 235.2,184.8 241.2,187.4 247.2,190.0 253.1,192.5 259.1,194.9 265.1,197.3 271.1,199.7 277.0,201.9 283.0,204.1 289.0,206.3 295.0,208.4 300.9,210.4 306.9,212.4 312.9,214.4 318.9,216.3 324.8,218.1 330.8,220.0 336.8,221.7 342.7,223.5 348.7,225.2 354.7,226.8 360.7,228.5 366.6,230.1 372.6,231.6 378.6,233.1 384.6,234.6 390.5,236.1 396.5,237.5 402.5,238.9 408.5,240.3 414.4,241.7 420.4,243.0 426.4,244.3 432.3,245.6 438.3,246.8 444.3,248.1 450.3,249.3 456.2,250.4 462.2,251.6 468.2,252.7 474.2,253.9 480.1,255.0 486.1,256.0 492.1,257.1 498.1,258.1 504.0,259.2 510.0,260.2" fill="none" stroke="#2563eb" stroke-width="2.4" stroke-linejoin="round"/><polyline points="62.0,108.0 68.0,108.9 73.9,109.8 79.9,110.7 85.9,111.6 91.9,112.4 97.8,113.3 103.8,114.2 109.8,115.0 115.8,115.9 121.7,116.7 127.7,117.5 133.7,118.4 139.7,119.2 145.6,120.0 151.6,120.9 157.6,121.7 163.5,122.5 169.5,123.3 175.5,124.1 181.5,124.9 187.4,125.7 193.4,126.4 199.4,127.2 205.4,128.0 211.3,128.8 217.3,129.5 223.3,130.3 229.3,131.0 235.2,131.8 241.2,132.5 247.2,133.3 253.1,134.0 259.1,134.8 265.1,135.5 271.1,136.2 277.0,136.9 283.0,137.6 289.0,138.4 295.0,139.1 300.9,139.8 306.9,140.5 312.9,141.2 318.9,141.8 324.8,142.5 330.8,143.2 336.8,143.9 342.7,144.6 348.7,145.2 354.7,145.9 360.7,146.6 366.6,147.2 372.6,147.9 378.6,148.5 384.6,149.2 390.5,149.8 396.5,150.5 402.5,151.1 408.5,151.7 414.4,152.4 420.4,153.0 426.4,153.6 432.3,154.2 438.3,154.9 444.3,155.5 450.3,156.1 456.2,156.7 462.2,157.3 468.2,157.9 474.2,158.5 480.1,159.1 486.1,159.7 492.1,160.3 498.1,160.8 504.0,161.4 510.0,162.0" fill="none" stroke="#dc2626" stroke-width="2.4" stroke-linejoin="round"/><polyline points="62.0,162.0 68.0,163.4 73.9,164.8 79.9,166.2 85.9,167.6 91.9,169.0 97.8,170.3 103.8,171.6 109.8,172.9 115.8,174.2 121.7,175.5 127.7,176.8 133.7,178.0 139.7,179.2 145.6,180.4 151.6,181.6 157.6,182.8 163.5,184.0 169.5,185.1 175.5,186.3 181.5,187.4 187.4,188.5 193.4,189.6 199.4,190.7 205.4,191.8 211.3,192.9 217.3,193.9 223.3,194.9 229.3,196.0 235.2,197.0 241.2,198.0 247.2,199.0 253.1,200.0 259.1,201.0 265.1,201.9 271.1,202.9 277.0,203.8 283.0,204.7 289.0,205.7 295.0,206.6 300.9,207.5 306.9,208.4 312.9,209.3 318.9,210.1 324.8,211.0 330.8,211.8 336.8,212.7 342.7,213.5 348.7,214.4 354.7,215.2 360.7,216.0 366.6,216.8 372.6,217.6 378.6,218.4 384.6,219.2 390.5,220.0 396.5,220.7 402.5,221.5 408.5,222.2 414.4,223.0 420.4,223.7 426.4,224.4 432.3,225.2 438.3,225.9 444.3,226.6 450.3,227.3 456.2,228.0 462.2,228.7 468.2,229.4 474.2,230.1 480.1,230.7 486.1,231.4 492.1,232.1 498.1,232.7 504.0,233.4 510.0,234.0" fill="none" stroke="#d97706" stroke-width="2.4" stroke-linejoin="round"/><polyline points="62.0,216.0 68.0,217.6 73.9,219.2 79.9,220.7 85.9,222.2 91.9,223.7 97.8,225.2 103.8,226.6 109.8,228.0 115.8,229.4 121.7,230.7 127.7,232.1 133.7,233.4 139.7,234.6 145.6,235.9 151.6,237.1 157.6,238.3 163.5,239.5 169.5,240.7 175.5,241.9 181.5,243.0 187.4,244.1 193.4,245.2 199.4,246.3 205.4,247.4 211.3,248.4 217.3,249.4 223.3,250.4 229.3,251.4 235.2,252.4 241.2,253.4 247.2,254.3 253.1,255.3 259.1,256.2 265.1,257.1 271.1,258.0 277.0,258.9 283.0,259.8 289.0,260.6 295.0,261.5 300.9,262.3 306.9,263.1 312.9,263.9 318.9,264.7 324.8,265.5 330.8,266.3 336.8,267.0 342.7,267.8 348.7,268.5 354.7,269.3 360.7,270.0 366.6,270.7 372.6,271.4 378.6,272.1 384.6,272.8 390.5,273.5 396.5,274.2 402.5,274.8 408.5,275.5 414.4,276.1 420.4,276.8 426.4,277.4 432.3,278.0 438.3,278.6 444.3,279.2 450.3,279.8 456.2,280.4 462.2,281.0 468.2,281.6 474.2,282.1 480.1,282.7 486.1,283.3 492.1,283.8 498.1,284.4 504.0,284.9 510.0,285.4" fill="none" stroke="#64748b" stroke-width="2.4" stroke-linejoin="round"/><line x1="532" y1="60" x2="558" y2="60" stroke="#2563eb" stroke-width="2.6"/><text class="lbl" x="564" y="64">B — different surface, same structure</text><line x1="532" y1="84" x2="558" y2="84" stroke="#dc2626" stroke-width="2.6"/><text class="lbl" x="564" y="88">E — near-miss, one edge flipped</text><line x1="532" y1="108" x2="558" y2="108" stroke="#d97706" stroke-width="2.6"/><text class="lbl" x="564" y="112">C — same surface, different structure</text><line x1="532" y1="132" x2="558" y2="132" stroke="#64748b" stroke-width="2.6"/><text class="lbl" x="564" y="136">D — matched random</text><text class="sub" x="532" y="170">Below η=0.22 the true</text><text class="sub" x="532" y="186">cross-domain analogue wins.</text><text class="sub" x="532" y="202">Above it, the near-miss does.</text><text class="sub" x="532" y="218">Nothing about the structures</text><text class="sub" x="532" y="234">changed — only the dial.</text></svg>